<?xml version="1.0" encoding="iso-8859-1"?>
<!-- Generator: Adobe Illustrator 18.1.1, SVG Export Plug-In . SVG Version: 6.00 Build 0)  -->
<svg version="1.1" id="Capa_1" xmlns="http://www.w3.org/2000/svg" xmlns:xlink="http://www.w3.org/1999/xlink" x="0px" y="0px"
	 viewBox="0 0 337.896 337.896" style="enable-background:new 0 0 337.896 337.896;" xml:space="preserve">
<g>
	<g>
		<path style="fill:#010002;" d="M196.182,63.433L168.954,8.265l-27.228,55.168c-34.418,7.604-63.528,29.306-80.971,58.753
			L0,131.013l43.877,42.773c-0.397,4.063-0.609,8.175-0.609,12.341c0,31.96,11.95,61.113,31.596,83.288l-10.329,60.216
			l53.983-28.381c15.441,6.777,32.493,10.563,50.431,10.563s34.99-3.786,50.431-10.563l53.983,28.381l-10.329-60.216
			c19.646-22.175,31.596-51.328,31.596-83.288c0-4.166-0.212-8.278-0.609-12.341l43.877-42.773l-60.754-8.828
			C259.715,92.739,230.605,71.037,196.182,63.433z"/>
	</g>
</g>
<g>
</g>
<g>
</g>
<g>
</g>
<g>
</g>
<g>
</g>
<g>
</g>
<g>
</g>
<g>
</g>
<g>
</g>
<g>
</g>
<g>
</g>
<g>
</g>
<g>
</g>
<g>
</g>
<g>
</g>
</svg>
