<?xml version="1.0" encoding="iso-8859-1"?>
<!-- Generator: Adobe Illustrator 18.1.1, SVG Export Plug-In . SVG Version: 6.00 Build 0)  -->
<svg version="1.1" id="Capa_1" xmlns="http://www.w3.org/2000/svg" xmlns:xlink="http://www.w3.org/1999/xlink" x="0px" y="0px"
	 viewBox="0 0 331.783 331.783" style="enable-background:new 0 0 331.783 331.783;" xml:space="preserve">
<g>
	<g>
		<path style="fill:#010002;" d="M310.027,67.308C310.027,30.132,245.498,0,165.891,0S21.756,30.132,21.756,67.308
			c0,11.335,6.026,22.012,16.627,31.383c-10.601,20.07-16.627,42.925-16.627,67.2c0,55.565,31.438,103.783,77.501,127.84
			c19.929,10.41,42.593,38.052,66.634,38.052c24.487,0,47.543-27.859,67.738-38.634c45.46-24.247,76.397-72.138,76.397-127.258
			c0-24.275-6.027-47.13-16.627-67.2C304,89.32,310.027,78.643,310.027,67.308z"/>
	</g>
</g>
<g>
</g>
<g>
</g>
<g>
</g>
<g>
</g>
<g>
</g>
<g>
</g>
<g>
</g>
<g>
</g>
<g>
</g>
<g>
</g>
<g>
</g>
<g>
</g>
<g>
</g>
<g>
</g>
<g>
</g>
</svg>
